<mxfile host="app.diagrams.net" modified="2021-10-19T07:21:35.569Z" agent="5.0 (Macintosh; Intel Mac OS X 10_15_7) AppleWebKit/537.36 (KHTML, like Gecko) Chrome/91.0.4472.114 Safari/537.36" etag="4ONdLkveH-8qDxfSVdxC" version="15.5.5" type="github">
  <diagram id="4giosPsuVtTbvVfEAgt2" name="Page-1">
    <mxGraphModel dx="946" dy="474" grid="1" gridSize="10" guides="1" tooltips="1" connect="1" arrows="1" fold="1" page="1" pageScale="1" pageWidth="827" pageHeight="1169" math="0" shadow="0">
      <root>
        <mxCell id="0" />
        <mxCell id="1" parent="0" />
        <mxCell id="q80U0MLeQIe-wuLsPMVk-32" style="edgeStyle=orthogonalEdgeStyle;rounded=0;orthogonalLoop=1;jettySize=auto;html=1;exitX=1;exitY=0.5;exitDx=0;exitDy=0;" parent="1" source="q80U0MLeQIe-wuLsPMVk-1" target="q80U0MLeQIe-wuLsPMVk-28" edge="1">
          <mxGeometry relative="1" as="geometry" />
        </mxCell>
        <mxCell id="-HjF1x4q40Q1FV6r9szN-24" style="edgeStyle=orthogonalEdgeStyle;rounded=0;orthogonalLoop=1;jettySize=auto;html=1;exitX=0.5;exitY=1;exitDx=0;exitDy=0;entryX=0.5;entryY=0;entryDx=0;entryDy=0;fontFamily=Courier New;fontSize=10;" parent="1" source="q80U0MLeQIe-wuLsPMVk-1" target="q80U0MLeQIe-wuLsPMVk-36" edge="1">
          <mxGeometry relative="1" as="geometry" />
        </mxCell>
        <mxCell id="q80U0MLeQIe-wuLsPMVk-1" value="backend==auto?" style="rhombus;whiteSpace=wrap;html=1;fillColor=#d5e8d4;strokeColor=#82b366;" parent="1" vertex="1">
          <mxGeometry x="182.5" y="200" width="135" height="40" as="geometry" />
        </mxCell>
        <mxCell id="q80U0MLeQIe-wuLsPMVk-11" style="edgeStyle=orthogonalEdgeStyle;rounded=0;orthogonalLoop=1;jettySize=auto;html=1;exitX=0.5;exitY=1;exitDx=0;exitDy=0;entryX=0.5;entryY=0;entryDx=0;entryDy=0;" parent="1" source="q80U0MLeQIe-wuLsPMVk-2" target="q80U0MLeQIe-wuLsPMVk-6" edge="1">
          <mxGeometry relative="1" as="geometry" />
        </mxCell>
        <mxCell id="q80U0MLeQIe-wuLsPMVk-2" value="launch" style="rounded=0;whiteSpace=wrap;html=1;fillColor=#f5f5f5;fontColor=#333333;strokeColor=#666666;" parent="1" vertex="1">
          <mxGeometry x="200" y="100" width="100" height="30" as="geometry" />
        </mxCell>
        <mxCell id="q80U0MLeQIe-wuLsPMVk-12" style="edgeStyle=orthogonalEdgeStyle;rounded=0;orthogonalLoop=1;jettySize=auto;html=1;exitX=0.5;exitY=1;exitDx=0;exitDy=0;" parent="1" source="q80U0MLeQIe-wuLsPMVk-3" target="q80U0MLeQIe-wuLsPMVk-7" edge="1">
          <mxGeometry relative="1" as="geometry" />
        </mxCell>
        <mxCell id="q80U0MLeQIe-wuLsPMVk-3" value="spawn" style="rounded=0;whiteSpace=wrap;html=1;fillColor=#f5f5f5;fontColor=#333333;strokeColor=#666666;" parent="1" vertex="1">
          <mxGeometry x="364" y="100" width="100" height="30" as="geometry" />
        </mxCell>
        <mxCell id="q80U0MLeQIe-wuLsPMVk-35" style="edgeStyle=orthogonalEdgeStyle;rounded=0;orthogonalLoop=1;jettySize=auto;html=1;exitX=0.5;exitY=1;exitDx=0;exitDy=0;entryX=0.5;entryY=0;entryDx=0;entryDy=0;" parent="1" source="q80U0MLeQIe-wuLsPMVk-6" target="q80U0MLeQIe-wuLsPMVk-1" edge="1">
          <mxGeometry relative="1" as="geometry" />
        </mxCell>
        <mxCell id="q80U0MLeQIe-wuLsPMVk-6" value="参数解析&lt;br&gt;&amp;nbsp;backend" style="rounded=0;whiteSpace=wrap;html=1;fillColor=#d5e8d4;strokeColor=#82b366;" parent="1" vertex="1">
          <mxGeometry x="200" y="150" width="100" height="30" as="geometry" />
        </mxCell>
        <mxCell id="q80U0MLeQIe-wuLsPMVk-30" style="edgeStyle=orthogonalEdgeStyle;rounded=0;orthogonalLoop=1;jettySize=auto;html=1;exitX=0.5;exitY=1;exitDx=0;exitDy=0;" parent="1" source="q80U0MLeQIe-wuLsPMVk-7" target="q80U0MLeQIe-wuLsPMVk-28" edge="1">
          <mxGeometry relative="1" as="geometry" />
        </mxCell>
        <mxCell id="q80U0MLeQIe-wuLsPMVk-7" value="参数解析&lt;br&gt;backend" style="rounded=0;whiteSpace=wrap;html=1;fillColor=#d5e8d4;strokeColor=#82b366;" parent="1" vertex="1">
          <mxGeometry x="364" y="150" width="100" height="30" as="geometry" />
        </mxCell>
        <mxCell id="q80U0MLeQIe-wuLsPMVk-13" style="edgeStyle=orthogonalEdgeStyle;rounded=0;orthogonalLoop=1;jettySize=auto;html=1;exitX=0.5;exitY=1;exitDx=0;exitDy=0;entryX=0.5;entryY=0;entryDx=0;entryDy=0;" parent="1" source="q80U0MLeQIe-wuLsPMVk-9" target="q80U0MLeQIe-wuLsPMVk-2" edge="1">
          <mxGeometry relative="1" as="geometry" />
        </mxCell>
        <mxCell id="q80U0MLeQIe-wuLsPMVk-9" value="用户" style="rounded=0;whiteSpace=wrap;html=1;" parent="1" vertex="1">
          <mxGeometry x="274" y="20" width="110" height="30" as="geometry" />
        </mxCell>
        <mxCell id="q80U0MLeQIe-wuLsPMVk-14" style="edgeStyle=orthogonalEdgeStyle;rounded=0;orthogonalLoop=1;jettySize=auto;html=1;exitX=0.5;exitY=1;exitDx=0;exitDy=0;entryX=0.5;entryY=0;entryDx=0;entryDy=0;" parent="1" source="q80U0MLeQIe-wuLsPMVk-9" target="q80U0MLeQIe-wuLsPMVk-3" edge="1">
          <mxGeometry relative="1" as="geometry">
            <mxPoint x="340" y="80" as="sourcePoint" />
            <mxPoint x="260" y="110" as="targetPoint" />
          </mxGeometry>
        </mxCell>
        <mxCell id="q80U0MLeQIe-wuLsPMVk-15" value="PS模式" style="rounded=1;whiteSpace=wrap;html=1;fillColor=#f5f5f5;fontColor=#333333;strokeColor=#666666;" parent="1" vertex="1">
          <mxGeometry x="82.5" y="350" width="100" height="40" as="geometry" />
        </mxCell>
        <mxCell id="-HjF1x4q40Q1FV6r9szN-17" style="edgeStyle=orthogonalEdgeStyle;rounded=0;orthogonalLoop=1;jettySize=auto;html=1;exitX=0.5;exitY=1;exitDx=0;exitDy=0;entryX=0.5;entryY=0;entryDx=0;entryDy=0;" parent="1" source="q80U0MLeQIe-wuLsPMVk-28" target="-HjF1x4q40Q1FV6r9szN-16" edge="1">
          <mxGeometry relative="1" as="geometry" />
        </mxCell>
        <mxCell id="q80U0MLeQIe-wuLsPMVk-28" value="Collective模式" style="rounded=1;whiteSpace=wrap;html=1;fillColor=#f5f5f5;fontColor=#333333;strokeColor=#666666;" parent="1" vertex="1">
          <mxGeometry x="353" y="350" width="123" height="40" as="geometry" />
        </mxCell>
        <mxCell id="q80U0MLeQIe-wuLsPMVk-34" value="是" style="text;html=1;resizable=0;autosize=1;align=center;verticalAlign=middle;points=[];fillColor=none;strokeColor=none;rounded=0;" parent="1" vertex="1">
          <mxGeometry x="210" y="240" width="30" height="20" as="geometry" />
        </mxCell>
        <mxCell id="q80U0MLeQIe-wuLsPMVk-37" style="edgeStyle=orthogonalEdgeStyle;rounded=0;orthogonalLoop=1;jettySize=auto;html=1;exitX=0;exitY=0.5;exitDx=0;exitDy=0;entryX=0.5;entryY=0;entryDx=0;entryDy=0;" parent="1" source="q80U0MLeQIe-wuLsPMVk-36" target="q80U0MLeQIe-wuLsPMVk-15" edge="1">
          <mxGeometry relative="1" as="geometry" />
        </mxCell>
        <mxCell id="q80U0MLeQIe-wuLsPMVk-40" style="edgeStyle=orthogonalEdgeStyle;rounded=0;orthogonalLoop=1;jettySize=auto;html=1;exitX=1;exitY=0.5;exitDx=0;exitDy=0;entryX=0.5;entryY=0;entryDx=0;entryDy=0;" parent="1" source="q80U0MLeQIe-wuLsPMVk-36" target="q80U0MLeQIe-wuLsPMVk-28" edge="1">
          <mxGeometry relative="1" as="geometry" />
        </mxCell>
        <mxCell id="q80U0MLeQIe-wuLsPMVk-36" value="默认逻辑判断是否&lt;br&gt;PS模式" style="rhombus;whiteSpace=wrap;html=1;fillColor=#f5f5f5;strokeColor=#666666;fontColor=#333333;" parent="1" vertex="1">
          <mxGeometry x="161.25" y="260" width="177.5" height="70" as="geometry" />
        </mxCell>
        <mxCell id="q80U0MLeQIe-wuLsPMVk-38" value="是" style="text;html=1;resizable=0;autosize=1;align=center;verticalAlign=middle;points=[];fillColor=none;strokeColor=none;rounded=0;" parent="1" vertex="1">
          <mxGeometry x="117.5" y="270" width="30" height="20" as="geometry" />
        </mxCell>
        <mxCell id="q80U0MLeQIe-wuLsPMVk-39" value="否" style="text;html=1;resizable=0;autosize=1;align=center;verticalAlign=middle;points=[];fillColor=none;strokeColor=none;rounded=0;" parent="1" vertex="1">
          <mxGeometry x="353" y="270" width="30" height="20" as="geometry" />
        </mxCell>
        <mxCell id="-HjF1x4q40Q1FV6r9szN-14" value="" style="group" parent="1" vertex="1" connectable="0">
          <mxGeometry x="113.5" y="530" width="558.5" height="170" as="geometry" />
        </mxCell>
        <mxCell id="q80U0MLeQIe-wuLsPMVk-41" value="" style="group" parent="-HjF1x4q40Q1FV6r9szN-14" vertex="1" connectable="0">
          <mxGeometry x="42.5" y="140" width="516" height="30" as="geometry" />
        </mxCell>
        <mxCell id="q80U0MLeQIe-wuLsPMVk-16" value="CPU并行" style="rounded=1;whiteSpace=wrap;html=1;fillColor=#d5e8d4;strokeColor=#82b366;" parent="q80U0MLeQIe-wuLsPMVk-41" vertex="1">
          <mxGeometry width="90" height="30" as="geometry" />
        </mxCell>
        <mxCell id="q80U0MLeQIe-wuLsPMVk-17" value="GPU并行" style="rounded=1;whiteSpace=wrap;html=1;fillColor=#f5f5f5;fontColor=#333333;strokeColor=#666666;" parent="q80U0MLeQIe-wuLsPMVk-41" vertex="1">
          <mxGeometry x="140" width="90" height="30" as="geometry" />
        </mxCell>
        <mxCell id="q80U0MLeQIe-wuLsPMVk-20" value="XPU并行" style="rounded=1;whiteSpace=wrap;html=1;fillColor=#f5f5f5;fontColor=#333333;strokeColor=#666666;" parent="q80U0MLeQIe-wuLsPMVk-41" vertex="1">
          <mxGeometry x="280" width="90" height="30" as="geometry" />
        </mxCell>
        <mxCell id="q80U0MLeQIe-wuLsPMVk-21" value="RaiseError" style="rounded=1;whiteSpace=wrap;html=1;fillColor=#d5e8d4;strokeColor=#82b366;" parent="q80U0MLeQIe-wuLsPMVk-41" vertex="1">
          <mxGeometry x="426" width="90" height="30" as="geometry" />
        </mxCell>
        <mxCell id="-HjF1x4q40Q1FV6r9szN-1" value="按照backend和paddle版本" style="rhombus;whiteSpace=wrap;html=1;fillColor=#d5e8d4;strokeColor=#82b366;" parent="-HjF1x4q40Q1FV6r9szN-14" vertex="1">
          <mxGeometry x="212.5" width="177.5" height="70" as="geometry" />
        </mxCell>
        <mxCell id="-HjF1x4q40Q1FV6r9szN-3" value="" style="curved=1;endArrow=classic;html=1;rounded=0;exitX=0;exitY=0.5;exitDx=0;exitDy=0;entryX=0.5;entryY=0;entryDx=0;entryDy=0;" parent="-HjF1x4q40Q1FV6r9szN-14" source="-HjF1x4q40Q1FV6r9szN-1" target="q80U0MLeQIe-wuLsPMVk-16" edge="1">
          <mxGeometry width="50" height="50" relative="1" as="geometry">
            <mxPoint x="92.5" y="80" as="sourcePoint" />
            <mxPoint x="142.5" y="30" as="targetPoint" />
            <Array as="points">
              <mxPoint x="112.5" y="50" />
            </Array>
          </mxGeometry>
        </mxCell>
        <mxCell id="-HjF1x4q40Q1FV6r9szN-4" value="backend=gloo&lt;br&gt;且&lt;br&gt;paddle-cpu" style="text;html=1;resizable=0;autosize=1;align=center;verticalAlign=middle;points=[];fillColor=none;strokeColor=none;rounded=0;" parent="-HjF1x4q40Q1FV6r9szN-14" vertex="1">
          <mxGeometry y="70" width="90" height="50" as="geometry" />
        </mxCell>
        <mxCell id="-HjF1x4q40Q1FV6r9szN-8" value="" style="curved=1;endArrow=classic;html=1;rounded=0;exitX=0;exitY=1;exitDx=0;exitDy=0;entryX=0.5;entryY=0;entryDx=0;entryDy=0;" parent="-HjF1x4q40Q1FV6r9szN-14" source="-HjF1x4q40Q1FV6r9szN-1" target="q80U0MLeQIe-wuLsPMVk-17" edge="1">
          <mxGeometry width="50" height="50" relative="1" as="geometry">
            <mxPoint x="222.5" y="45" as="sourcePoint" />
            <mxPoint x="97.5" y="150" as="targetPoint" />
            <Array as="points">
              <mxPoint x="222.5" y="70" />
            </Array>
          </mxGeometry>
        </mxCell>
        <mxCell id="-HjF1x4q40Q1FV6r9szN-9" value="backend=nccl&lt;br&gt;且&lt;br&gt;paddle-gpu" style="text;html=1;resizable=0;autosize=1;align=center;verticalAlign=middle;points=[];fillColor=none;strokeColor=none;rounded=0;" parent="-HjF1x4q40Q1FV6r9szN-14" vertex="1">
          <mxGeometry x="132.5" y="70" width="90" height="50" as="geometry" />
        </mxCell>
        <mxCell id="-HjF1x4q40Q1FV6r9szN-10" value="backend=bkcl&lt;br&gt;且&lt;br&gt;paddle-xpu" style="text;html=1;resizable=0;autosize=1;align=center;verticalAlign=middle;points=[];fillColor=none;strokeColor=none;rounded=0;" parent="-HjF1x4q40Q1FV6r9szN-14" vertex="1">
          <mxGeometry x="282.5" y="70" width="90" height="50" as="geometry" />
        </mxCell>
        <mxCell id="-HjF1x4q40Q1FV6r9szN-11" value="" style="curved=1;endArrow=classic;html=1;rounded=0;exitX=1;exitY=1;exitDx=0;exitDy=0;entryX=0.5;entryY=0;entryDx=0;entryDy=0;" parent="-HjF1x4q40Q1FV6r9szN-14" source="-HjF1x4q40Q1FV6r9szN-1" target="q80U0MLeQIe-wuLsPMVk-20" edge="1">
          <mxGeometry width="50" height="50" relative="1" as="geometry">
            <mxPoint x="266.875" y="62.5" as="sourcePoint" />
            <mxPoint x="237.5" y="150" as="targetPoint" />
            <Array as="points">
              <mxPoint x="392.5" y="80" />
            </Array>
          </mxGeometry>
        </mxCell>
        <mxCell id="-HjF1x4q40Q1FV6r9szN-12" value="否则" style="text;html=1;resizable=0;autosize=1;align=center;verticalAlign=middle;points=[];fillColor=none;strokeColor=none;rounded=0;" parent="-HjF1x4q40Q1FV6r9szN-14" vertex="1">
          <mxGeometry x="462.5" y="85" width="40" height="20" as="geometry" />
        </mxCell>
        <mxCell id="-HjF1x4q40Q1FV6r9szN-13" value="" style="curved=1;endArrow=classic;html=1;rounded=0;exitX=1;exitY=0.5;exitDx=0;exitDy=0;entryX=0.5;entryY=0;entryDx=0;entryDy=0;" parent="-HjF1x4q40Q1FV6r9szN-14" source="-HjF1x4q40Q1FV6r9szN-1" target="q80U0MLeQIe-wuLsPMVk-21" edge="1">
          <mxGeometry width="50" height="50" relative="1" as="geometry">
            <mxPoint x="355.625" y="62.5" as="sourcePoint" />
            <mxPoint x="377.5" y="150" as="targetPoint" />
            <Array as="points">
              <mxPoint x="532.5" y="50" />
            </Array>
          </mxGeometry>
        </mxCell>
        <mxCell id="-HjF1x4q40Q1FV6r9szN-18" style="edgeStyle=orthogonalEdgeStyle;rounded=0;orthogonalLoop=1;jettySize=auto;html=1;exitX=0.5;exitY=1;exitDx=0;exitDy=0;entryX=0.5;entryY=0;entryDx=0;entryDy=0;" parent="1" source="-HjF1x4q40Q1FV6r9szN-16" target="-HjF1x4q40Q1FV6r9szN-1" edge="1">
          <mxGeometry relative="1" as="geometry" />
        </mxCell>
        <mxCell id="-HjF1x4q40Q1FV6r9szN-20" style="edgeStyle=orthogonalEdgeStyle;rounded=0;orthogonalLoop=1;jettySize=auto;html=1;exitX=1;exitY=0.5;exitDx=0;exitDy=0;entryX=0;entryY=0.5;entryDx=0;entryDy=0;" parent="1" source="-HjF1x4q40Q1FV6r9szN-16" target="-HjF1x4q40Q1FV6r9szN-19" edge="1">
          <mxGeometry relative="1" as="geometry" />
        </mxCell>
        <mxCell id="-HjF1x4q40Q1FV6r9szN-16" value="backend==auto?" style="rhombus;whiteSpace=wrap;html=1;fillColor=#d5e8d4;strokeColor=#82b366;" parent="1" vertex="1">
          <mxGeometry x="347" y="412.5" width="135" height="40" as="geometry" />
        </mxCell>
        <mxCell id="-HjF1x4q40Q1FV6r9szN-22" style="edgeStyle=orthogonalEdgeStyle;rounded=0;orthogonalLoop=1;jettySize=auto;html=1;exitX=0.5;exitY=1;exitDx=0;exitDy=0;" parent="1" source="-HjF1x4q40Q1FV6r9szN-19" target="-HjF1x4q40Q1FV6r9szN-1" edge="1">
          <mxGeometry relative="1" as="geometry">
            <Array as="points">
              <mxPoint x="605" y="510" />
              <mxPoint x="415" y="510" />
            </Array>
          </mxGeometry>
        </mxCell>
        <mxCell id="-HjF1x4q40Q1FV6r9szN-19" value="将backend设置为编译版本对应的最优 backend&lt;br&gt;paddle-cpu -&amp;gt; gloo&lt;br&gt;paddle-gpu -&amp;gt; nccl&lt;br&gt;paddle-xpu -&amp;gt; bkcl&lt;br&gt;" style="rounded=0;whiteSpace=wrap;html=1;" parent="1" vertex="1">
          <mxGeometry x="520" y="390" width="170" height="85" as="geometry" />
        </mxCell>
        <mxCell id="-HjF1x4q40Q1FV6r9szN-25" value="否" style="text;html=1;resizable=0;autosize=1;align=center;verticalAlign=middle;points=[];fillColor=none;strokeColor=none;rounded=0;" parent="1" vertex="1">
          <mxGeometry x="317.5" y="200" width="30" height="20" as="geometry" />
        </mxCell>
        <mxCell id="qYxfSnmAsCNC5Z5Ux--6-2" value="" style="rounded=1;whiteSpace=wrap;html=1;dashed=1;" vertex="1" parent="1">
          <mxGeometry x="528" y="50" width="144" height="115" as="geometry" />
        </mxCell>
        <mxCell id="qYxfSnmAsCNC5Z5Ux--6-3" value="修改模块" style="rounded=0;whiteSpace=wrap;html=1;fillColor=#d5e8d4;strokeColor=#82b366;" vertex="1" parent="1">
          <mxGeometry x="550" y="80" width="100" height="30" as="geometry" />
        </mxCell>
        <mxCell id="qYxfSnmAsCNC5Z5Ux--6-4" value="原始逻辑" style="rounded=0;whiteSpace=wrap;html=1;fillColor=#f5f5f5;fontColor=#333333;strokeColor=#666666;" vertex="1" parent="1">
          <mxGeometry x="550" y="125" width="100" height="30" as="geometry" />
        </mxCell>
        <mxCell id="qYxfSnmAsCNC5Z5Ux--6-5" value="图例：" style="text;html=1;resizable=0;autosize=1;align=center;verticalAlign=middle;points=[];fillColor=none;strokeColor=none;rounded=0;dashed=1;" vertex="1" parent="1">
          <mxGeometry x="529" y="54" width="50" height="20" as="geometry" />
        </mxCell>
      </root>
    </mxGraphModel>
  </diagram>
</mxfile>
